<?xml version="1.0" encoding="utf-8"?>
<!-- Generator: Adobe Illustrator 19.0.1, SVG Export Plug-In . SVG Version: 6.00 Build 0)  -->
<svg version="1.1" id="Layer_1" xmlns="http://www.w3.org/2000/svg" xmlns:xlink="http://www.w3.org/1999/xlink" x="0px" y="0px"
	 viewBox="0 0 80 80" style="enable-background:new 0 0 80 80;" xml:space="preserve">
<style type="text/css">
	.st0{fill:#1E232D;}
</style>
<g>
	<path class="st0" d="M33.8,54.1V65c0,0.6-0.4,1-1,1h-22c-0.6,0-1-0.5-1-1V31c0-0.6,0.4-1,1-1h6.9v-6H8.3c-2.5,0-4.5,2-4.5,4.5v45
		c0,2.5,2,4.5,4.5,4.5h27c2.5,0,4.5-2,4.5-4.5V54.1H33.8z M24.8,74h-6c-1.1,0-2-0.9-2-2c0-1.1,0.9-2,2-2h6c1.1,0,2,0.9,2,2
		C26.8,73.1,25.9,74,24.8,74z"/>
	<path class="st0" d="M23.8,26v24.2c0,0.7,0.4,1.4,1.1,1.6c0.7,0.3,1.4,0.1,1.9-0.4l5.9-5.9c4.6,4,10.6,6.4,17.1,6.4
		c14.4,0,26-11.6,26-26c0-14.4-11.6-26-26-26C35.4,0,23.8,11.7,23.8,26z M57.2,26c0-2.5,2-4.5,4.5-4.5c2.5,0,4.5,2,4.5,4.5
		s-2,4.5-4.5,4.5C59.2,30.5,57.2,28.5,57.2,26z M45.3,26c0-2.5,2-4.5,4.5-4.5c2.5,0,4.5,2,4.5,4.5s-2,4.5-4.5,4.5
		C47.3,30.5,45.3,28.5,45.3,26z M33.3,26c0-2.5,2-4.5,4.5-4.5c2.5,0,4.5,2,4.5,4.5s-2,4.5-4.5,4.5C35.3,30.5,33.3,28.5,33.3,26z"/>
</g>
</svg>
